<?xml version="1.0" encoding="UTF-8"?>
<svg id="Logo_Paths" data-name="Logo Paths" xmlns="http://www.w3.org/2000/svg" viewBox="0 0 2178.38 2254.98">
  <defs>
    <style>
      .cls-1 {
        fill: #fff;
      }
    </style>
  </defs>
  <path class="cls-1" d="m787.55,1914.28h525.45c-195.57-173.87-202.98-389.87-202.98-389.87h-123.32s-15.83,212.43-199.15,389.87Z"/>
  <path class="cls-1" d="m1050.53,450.36l87.66,114.38v-223.66l-87.49-148.68c-36.51,82.21-78.44,143.26-110.85,181.62-26.58,31.47-91.9,115.44-173.67,209.34-81.78,93.89-193.96,189.99-235.33,233.9-72.87,77.36-208.24,217.7-185.51,453.87,25.1,260.83,288,311.49,288,311.49v-139.23s-148.34-45.36-151.4-222.3h281.62v366.15s55.4,12.23,223.15-62.83h123.32l28.21,8.08-.04-143.41c-14.64-1.87-87.49-45.44-87.49-45.44,0,0-104.6,66.64-144.17,69.96v-777.7l144-185.53Zm-281.36,631.83h-253.79c3.06-78.64,167.49-240,253.79-313.53v313.53Z"/>
  <path class="cls-1" d="m1196.06,1553V420.4s132.66,160.23,207.32,241.02c74.55,80.68,158.3,160.85,255.06,283.66l-161.11.26s-141.45-160.85-166.98-175.15v310.98h249.7s32.68,66.38,36.09,138.55h-282.55v231.49s195.06,29.96,240-95.66h152.85s-65.7,233.7-337.62,233.7c-36.51,0-138.64-9.02-192.77-36.26Z"/>
</svg>